<svg xmlns="http://www.w3.org/2000/svg" viewBox="0 0 100 100">
  <rect x="0" y="0" width="100" height="100" fill="#ffffff"/>
  <path d="M 76 70 Q 92 60 88 40" fill="none" stroke="#1a1a1a" stroke-width="8" stroke-linecap="round"/>
  <path d="M 25 92 Q 20 70 26 55 Q 34 42 50 42 Q 66 42 74 55 Q 80 70 75 92 Z" fill="#1a1a1a"/>
  <circle cx="50" cy="40" r="26" fill="#1a1a1a"/>
  <path d="M 28 28 L 24 8 L 44 22 Z" fill="#1a1a1a"/>
  <path d="M 72 28 L 76 8 L 56 22 Z" fill="#1a1a1a"/>
  <circle cx="40" cy="38" r="5" fill="#f5d547"/>
  <circle cx="60" cy="38" r="5" fill="#f5d547"/>
  <ellipse cx="40" cy="38" rx="1.3" ry="4" fill="#1a1a1a"/>
  <ellipse cx="60" cy="38" rx="1.3" ry="4" fill="#1a1a1a"/>
  <path d="M 47 48 L 53 48 L 50 52 Z" fill="#f4a8a0"/>
</svg>
